<?xml version="1.0" encoding="utf-8"?>
<!-- Generator: Adobe Illustrator 24.1.3, SVG Export Plug-In . SVG Version: 6.00 Build 0)  -->
<svg version="1.1" id="Layer_1" xmlns="http://www.w3.org/2000/svg" xmlns:xlink="http://www.w3.org/1999/xlink" x="0px" y="0px"
	 viewBox="0 0 403 388" style="enable-background:new 0 0 403 388;" xml:space="preserve">
<style type="text/css">
	.st0{fill:#C84B31;}
	.st1{opacity:0.7;fill:#FFFFFF;enable-background:new    ;}
</style>
<g id="freepik--background-simple--inject-42">
	<path class="st0" d="M450,157.3c-4.9,41.8-24,90.4-62.1,112.7c-57.6,33.7-52.8,85.6-165.2,108.2c-16.4,3.4-33.1,4.9-49.8,4.7
		c-8.2-0.1-16.4-0.8-24.5-2c-71.4-10.4-119.5-60.1-137.2-120C-12,182,34.3,130.4,65.1,99.3s53.2-128,163.6-151
		c16.8-3.6,34-5.2,51.2-4.9c39.3,1,82.1,13.8,111.7,40.8c2.2,2,4.4,4.1,6.5,6.3C439.2,32.7,456.7,100.3,450,157.3z"/>
	<path class="st1" d="M450,157.3c-4.9,41.8-24,90.4-62.1,112.7c-57.6,33.7-52.8,85.6-165.2,108.2c-16.4,3.4-33.1,4.9-49.8,4.7
		c-8.2-0.1-16.4-0.8-24.5-2c-71.4-10.4-119.5-60.1-137.2-120C-12,182,34.3,130.4,65.1,99.3s53.2-128,163.6-151
		c16.8-3.6,34-5.2,51.2-4.9c39.3,1,82.1,13.8,111.7,40.8c2.2,2,4.4,4.1,6.5,6.3C439.2,32.7,456.7,100.3,450,157.3z"/>
</g>
</svg>
